<svg width="16" height="16" viewBox="0 0 16 16" fill="none" xmlns="http://www.w3.org/2000/svg">
<g id="Clip path group">
<mask id="mask0_4138_7342" style="mask-type:luminance" maskUnits="userSpaceOnUse" x="0" y="0" width="16" height="16">
<g id="clip_76">
<path id="Vector" d="M0 0H16V16H0V0Z" fill="white"/>
</g>
</mask>
<g mask="url(#mask0_4138_7342)">
<g id="Group">
<path id="Vector_2" d="M4.80048 12.8003C3.9165 12.8003 3.2085 13.5163 3.2085 14.4003C3.2085 15.2843 3.9165 16.0003 4.80048 16.0003C5.68447 16.0003 6.40049 15.2843 6.40049 14.4003C6.40049 13.5163 5.68447 12.8003 4.80048 12.8003Z" fill="#FFE600"/>
<path id="Vector_3" d="M5.68001 8.8H11.64C12.24 8.8 12.764 8.46802 13.04 7.97602L15.9 2.784C15.964 2.67199 16 2.53999 16 2.4C16 1.956 15.64 1.60001 15.2 1.60001H3.372L2.61199 0H0V1.60001H1.60001L4.476 7.668L3.396 9.62801C3.27199 9.86002 3.19999 10.12 3.19999 10.4C3.19999 11.284 3.91601 12 4.8 12H14.4V10.4H5.14001C5.028 10.4 4.94002 10.312 4.94002 10.2C4.94002 10.164 4.94801 10.132 4.96402 10.104L5.68001 8.8Z" fill="#FFE600"/>
<path id="Vector_4" d="M12.8005 12.8003C11.9165 12.8003 11.2085 13.5163 11.2085 14.4003C11.2085 15.2843 11.9165 16.0003 12.8005 16.0003C13.6845 16.0003 14.4005 15.2843 14.4005 14.4003C14.4005 13.5163 13.6845 12.8003 12.8005 12.8003Z" fill="#FFE600"/>
</g>
</g>
</g>
</svg>
