<svg xmlns="http://www.w3.org/2000/svg" xmlns:xlink="http://www.w3.org/1999/xlink" width="715" height="715" viewBox="0 0 715 715">
  <defs>
    <clipPath id="clip-Admin_User">
      <rect width="715" height="715"/>
    </clipPath>
  </defs>
  <g id="Admin_User" data-name="Admin / User" clip-path="url(#clip-Admin_User)">
    <rect width="715" height="715" fill="#fff"/>
    <path id="person" d="M0,637.977c1.958-17.5,3.9-35.018,7.8-52.215,5.5-24.336,12.978-47.925,28.52-68.042,12.088-15.649,27.808-26.206,46.483-32.561,15.417-5.234,31.351-7.976,47.32-10.7,20.081-3.418,40.038-7.21,58.945-15.221,11.679-4.949,22.645-11.109,32.276-19.4,5.074-4.362,5.715-10.824,6.462-16.859,1.941-15.7,1.211-31.457.071-47.195a6.25,6.25,0,0,0-1.8-4.237c-9.435-9.133-13.851-20.883-17.073-33.2a180.582,180.582,0,0,1-5.786-31.671c-.267-3.365-1.442-4.362-4.914-3.756-9.24,1.62-15.257-2.314-16.859-11.483-1.246-7.05-5.02-12.676-8.438-18.622-7.78-13.512-12.5-27.932-12.213-43.706.142-8.385,2.973-12.177,11.162-14.4,3.062-.819,2.012-2.653,1.584-4.308a201.633,201.633,0,0,1-5.359-26.953c-1.193-9.969-1.78-19.957,1.139-29.8.267-.908,1.015-2.047.018-2.8-1.122-.819-2.172.107-3.1.73-2.261,1.549-3.792,3.828-5.8,6.373-1.6-2.973-1.673-6-1.994-8.848-3.739-33.042,14.082-66.974,43.367-82.622a12.456,12.456,0,0,0,6.142-6.765c8.527-21.363,22.218-38.276,42.922-48.993A94.427,94.427,0,0,1,284.451.694c20.883-2.279,41.053.944,60.707,8.741-9.613.57-19.512-.178-27.9,5.982a184.236,184.236,0,0,1,21.256-.3c28.182.623,55.171,6.445,80.326,19.441,14.687,7.584,27.594,17.518,36.406,31.9,4.29,7,7.281,14.509,7.566,23.7-3.881-3.062-5.982-7.085-10.415-9.062,16.094,26.241,23.624,53.657,15.827,83.9-1.8-2.937-.943-6.8-4.112-9.685-.872,4.415.214,8.332-.053,12.266-.908,13.53-3.9,26.633-6.943,39.736-1.406,6.035-1.406,6.124,4.237,8.136,5.092,1.816,7.192,5.946,8.278,10.7,2.225,9.756-.872,19.013-3.044,28.324-1.923,8.207-5.786,15.542-10.2,22.627a34.69,34.69,0,0,0-5.038,13.1c-1.62,10.023-7.21,14.011-17.251,12.587-3.382-.481-4.54.677-4.949,3.988-1.834,15.061-3.454,30.193-8.385,44.667-2.421,7.085-5.359,13.922-10.593,19.494a5.474,5.474,0,0,0-1.549,3.454,272.873,272.873,0,0,0,1,51.432c1.371,11.625,9.311,17.126,17.838,22.574,20.224,12.943,42.9,18.728,66.226,22.592,20.331,3.382,40.875,5.519,60.689,11.7,26.17,8.154,45.272,24.532,58.055,48.566,11.874,22.342,17.7,46.518,21.452,71.264,1.78,11.732,2.937,23.571,4.362,35.356H0Z" transform="translate(38.378 77.023)" fill="#aeb0b4"/>
  </g>
</svg>
