<?xml version="1.0" encoding="UTF-8"?>
<svg id="Layer_1" data-name="Layer 1" xmlns="http://www.w3.org/2000/svg" viewBox="0 0 198.43 66.72">
  <defs>
    <style>
      .cls-1 {
        fill: #0092d0;
      }

      .cls-1, .cls-2, .cls-3 {
        stroke-width: 0px;
      }

      .cls-2 {
        fill: #231f20;
      }

      .cls-3 {
        fill: #ffe600;
      }
    </style>
  </defs>
  <rect class="cls-3" y="54" width="190.83" height="12.72"/>
  <path class="cls-2" d="M118.2,57.18h.72l2.64,6.72h-.69l-.82-2.09h-3.06l-.81,2.09h-.68l2.71-6.72ZM117.18,61.27h2.64l-1.3-3.45-1.35,3.45Z"/>
  <path class="cls-2" d="M122.15,57.18h.72l3.92,5.69h.02v-5.69h.64v6.72h-.72l-3.92-5.69h-.02v5.69h-.64v-6.72Z"/>
  <path class="cls-2" d="M131.19,57.18h5.03v1.24h-3.55v1.44h3.26v1.15h-3.26v1.65h3.63v1.24h-5.1v-6.72Z"/>
  <path class="cls-2" d="M138.11,61.68c0,.89.7,1.24,1.49,1.24.52,0,1.31-.15,1.31-.84,0-.73-1.01-.85-2-1.11-1-.26-2.01-.65-2.01-1.91,0-1.38,1.3-2.04,2.51-2.04,1.41,0,2.69.61,2.69,2.17h-1.43c-.05-.81-.62-1.02-1.33-1.02-.47,0-1.02.2-1.02.76,0,.52.32.58,2.01,1.02.49.12,2,.44,2,1.96,0,1.23-.97,2.16-2.8,2.16-1.49,0-2.88-.74-2.86-2.39h1.43Z"/>
  <path class="cls-2" d="M144.86,57.18h1.52l2.52,6.72h-1.54l-.51-1.49h-2.52l-.53,1.49h-1.5l2.55-6.72ZM144.71,61.31h1.74l-.84-2.47h-.02l-.88,2.47Z"/>
  <path class="cls-2" d="M149.47,57.18h3.16c1.28,0,2.15.41,2.15,1.67,0,.66-.33,1.12-.91,1.4.82.24,1.23.87,1.23,1.7,0,1.36-1.16,1.95-2.37,1.95h-3.26v-6.72ZM150.95,59.9h1.5c.52,0,.91-.23.91-.8,0-.64-.49-.77-1.02-.77h-1.39v1.57ZM150.95,62.76h1.58c.58,0,1.09-.19,1.09-.88s-.43-.96-1.06-.96h-1.61v1.85Z"/>
  <path class="cls-2" d="M158.3,57.18h2.84c1.13,0,2.16.39,2.16,1.65,0,.71-.47,1.36-1.17,1.51v.02c.86.12,1.42.76,1.42,1.64,0,.64-.23,1.91-2.41,1.91h-2.84v-6.72ZM158.94,60.13h2.2c1.03,0,1.52-.51,1.52-1.14,0-.84-.52-1.26-1.52-1.26h-2.2v2.4ZM158.94,63.36h2.2c.95,0,1.77-.31,1.77-1.39,0-.85-.65-1.3-1.77-1.3h-2.2v2.68Z"/>
  <path class="cls-2" d="M164.01,57.18h3.08c1.11,0,2.05.54,2.05,1.75,0,.85-.44,1.55-1.31,1.72v.02c.88.11,1.13.71,1.18,1.52.03.46.03,1.38.31,1.72h-.7c-.16-.26-.16-.76-.18-1.04-.06-.94-.13-1.98-1.35-1.94h-2.43v2.98h-.64v-6.72ZM164.65,60.38h2.39c.78,0,1.45-.49,1.45-1.31s-.49-1.33-1.45-1.33h-2.39v2.64Z"/>
  <path class="cls-2" d="M172.45,57.18h.72l2.63,6.72h-.69l-.82-2.09h-3.06l-.81,2.09h-.69l2.71-6.72ZM171.43,61.27h2.64l-1.3-3.45-1.34,3.45Z"/>
  <path class="cls-2" d="M176.4,57.18h.71l3.92,5.69h.02v-5.69h.64v6.72h-.72l-3.92-5.69h-.02v5.69h-.64v-6.72Z"/>
  <path class="cls-2" d="M182.47,57.18h2.33c2.02.05,3.09,1.16,3.09,3.36s-1.07,3.31-3.09,3.36h-2.33v-6.72ZM183.11,63.36h1.36c1.93,0,2.77-.81,2.77-2.81s-.84-2.83-2.77-2.81h-1.36v5.63Z"/>
  <path class="cls-1" d="M12.65,38.04c-.57,0-1.65-.3-1.9-.6-.6-.74-.27-2.31-.11-3.06l4.62-21.72c.4-1.88.85-3.6,2.96-3.6h10.36L30.92.08h-10.89C12.21.08,6.49,4.91,4.69,13.35L.45,33.26c-.92,4.34-.37,7.93,1.61,10.37,1.72,2.13,4.46,3.12,7.93,3.18v.02s11.19,0,11.19,0l2.15-8.78h-10.69Z"/>
  <polygon class="cls-1" points="36.42 0 26.45 46.87 36.88 46.87 46.84 0 36.42 0"/>
  <path class="cls-1" d="M59.37,12.57c.18-.83.97-3.28,3.03-3.51l12.61.02L76.96.03h-13.11c-7.66.14-13.36,4.99-15.13,13.32l-4.37,20.04c-1.15,5.4-.9,9.08.9,11.31,1.18,1.46,2.98,2.2,5.35,2.2h6.67v.02s10.17,0,10.17,0l5.28-24.83h-9.91l-3.47,15.93h-3.47c-.57,0-.97-.15-1.21-.45-.6-.74-.27-2.31-.11-3.06l4.84-21.94Z"/>
  <polygon class="cls-1" points="110.98 .04 102.19 28.32 105.62 .04 95.54 .04 87.02 28.42 90.07 .04 79.38 .04 76.63 46.87 88 46.87 95.72 23.05 93.01 46.87 104.39 46.87 121.52 .04 110.98 .04"/>
  <polygon class="cls-1" points="138.87 28.07 141.07 17.84 131.03 17.84 132.72 9.87 144.19 9.87 146.26 .12 124.37 .12 114.4 46.87 136.76 46.87 138.83 37.12 126.9 37.12 128.83 28.07 138.87 28.07"/>
  <polygon class="cls-1" points="161.25 .04 150.82 .04 140.9 46.87 161.52 46.87 163.59 37.12 153.4 37.12 161.25 .04"/>
  <path class="cls-1" d="M196.38,3.38c-1.74-2.15-4.56-3.19-8.09-3.22v-.02s-13.86-.03-13.86-.03l-9.89,46.76h10.15v-.04h4.17v.02c7.82,0,13.15-4.36,14.95-12.81l4.19-20.29c.92-4.34.37-7.93-1.61-10.37ZM187.8,12.63l-4.57,22.1c-.36,1.71-.76,2.96-2.41,3.17h-4.39l5.59-28.82h3.74v.04c.56,0,1.69.15,1.93.45.6.74.27,2.31.11,3.06Z"/>
</svg>