<?xml version="1.0" encoding="UTF-8"?>
<svg id="Layer_1" data-name="Layer 1" xmlns="http://www.w3.org/2000/svg" viewBox="0 0 425.58 130.26">
  <defs>
    <style>
      .cls-1 {
        fill: #231f20;
      }

      .cls-1, .cls-2, .cls-3, .cls-4 {
        stroke-width: 0px;
      }

      .cls-2 {
        fill: #ffe600;
      }

      .cls-3 {
        fill: #fff;
      }

      .cls-4 {
        fill: #0093d0;
      }
    </style>
  </defs>
  <g>
    <rect class="cls-2" x="112.02" y="85.33" width="301.56" height="20.1"/>
    <path class="cls-1" d="M298.8,90.36h1.13l4.17,10.62h-1.09l-1.29-3.3h-4.84l-1.28,3.3h-1.08l4.28-10.62ZM297.2,96.82h4.18l-2.05-5.45-2.13,5.45Z"/>
    <path class="cls-1" d="M305.05,90.36h1.13l6.19,8.99h.03v-8.99h1.01v10.62h-1.13l-6.19-8.98h-.03v8.98h-1.01v-10.62Z"/>
    <path class="cls-1" d="M319.33,90.36h7.94v1.96h-5.61v2.27h5.15v1.81h-5.15v2.61h5.73v1.96h-8.07v-10.62Z"/>
    <path class="cls-1" d="M330.26,97.46c0,1.41,1.1,1.97,2.35,1.97.82,0,2.07-.24,2.07-1.33,0-1.15-1.59-1.34-3.15-1.76-1.58-.41-3.17-1.02-3.17-3.02,0-2.18,2.05-3.22,3.97-3.22,2.22,0,4.26.96,4.26,3.43h-2.26c-.07-1.28-.97-1.61-2.09-1.61-.75,0-1.61.31-1.61,1.2,0,.82.51.92,3.17,1.6.77.19,3.16.69,3.16,3.1,0,1.95-1.54,3.41-4.42,3.41-2.35,0-4.55-1.17-4.52-3.78h2.26Z"/>
    <path class="cls-1" d="M340.93,90.36h2.4l3.97,10.62h-2.43l-.8-2.36h-3.98l-.83,2.36h-2.37l4.03-10.62ZM340.71,96.88h2.75l-1.34-3.9h-.03l-1.39,3.9Z"/>
    <path class="cls-1" d="M348.22,90.36h5c2.02,0,3.39.65,3.39,2.63,0,1.04-.52,1.77-1.44,2.21,1.3.38,1.95,1.37,1.95,2.69,0,2.16-1.83,3.08-3.75,3.08h-5.15v-10.62ZM350.55,94.66h2.37c.82,0,1.43-.37,1.43-1.26,0-1.01-.77-1.22-1.61-1.22h-2.19v2.48ZM350.55,99.17h2.5c.92,0,1.72-.3,1.72-1.4s-.68-1.52-1.68-1.52h-2.55v2.92Z"/>
    <path class="cls-1" d="M362.18,90.36h4.49c1.79,0,3.41.62,3.41,2.6,0,1.12-.74,2.14-1.84,2.38v.03c1.37.19,2.24,1.21,2.24,2.59,0,1.01-.36,3.02-3.81,3.02h-4.49v-10.62ZM363.19,95.02h3.48c1.62,0,2.4-.81,2.4-1.8,0-1.32-.82-1.99-2.4-1.99h-3.48v3.79ZM363.19,100.12h3.48c1.5.02,2.8-.49,2.8-2.19,0-1.35-1.03-2.05-2.8-2.05h-3.48v4.24Z"/>
    <path class="cls-1" d="M371.2,90.36h4.86c1.76,0,3.23.85,3.23,2.77,0,1.34-.7,2.44-2.07,2.71v.03c1.38.18,1.79,1.13,1.86,2.4.05.73.05,2.18.49,2.72h-1.11c-.26-.41-.26-1.2-.29-1.65-.09-1.48-.21-3.13-2.13-3.06h-3.84v4.71h-1.01v-10.62ZM372.21,95.41h3.78c1.23,0,2.29-.78,2.29-2.07s-.77-2.11-2.29-2.11h-3.78v4.18Z"/>
    <path class="cls-1" d="M384.53,90.36h1.13l4.16,10.62h-1.09l-1.29-3.3h-4.84l-1.28,3.3h-1.09l4.29-10.62ZM382.93,96.82h4.18l-2.06-5.45-2.12,5.45Z"/>
    <path class="cls-1" d="M390.78,90.36h1.13l6.19,8.99h.03v-8.99h1.01v10.62h-1.14l-6.19-8.98h-.03v8.98h-1.01v-10.62Z"/>
    <path class="cls-1" d="M400.38,90.36h3.67c3.2.08,4.88,1.83,4.88,5.31s-1.68,5.24-4.88,5.31h-3.67v-10.62ZM401.39,100.12h2.16c3.05.02,4.38-1.28,4.38-4.45s-1.33-4.47-4.38-4.45h-2.16v8.89Z"/>
    <path class="cls-4" d="M132.01,60.12c-.9,0-2.61-.47-3-.95-.95-1.17-.43-3.65-.17-4.84l7.31-34.32c.63-2.98,1.34-5.69,4.67-5.69h16.37L160.89.12h-17.21c-12.36,0-21.4,7.63-24.23,20.98l-6.7,31.46c-1.46,6.86-.58,12.53,2.55,16.39,2.72,3.36,7.05,4.94,12.53,5.02v.03s17.69,0,17.69,0l3.4-13.88h-16.89Z"/>
    <polygon class="cls-4" points="169.57 0 153.83 74.06 170.3 74.06 186.05 0 169.57 0"/>
    <path class="cls-4" d="M205.85,19.87c.28-1.31,1.54-5.19,4.79-5.55l19.93.03L233.63.05h-20.72v.02c-12.11.2-21.11,7.87-23.91,21.03l-6.9,31.66c-1.81,8.53-1.43,14.35,1.42,17.87,1.87,2.31,4.71,3.48,8.45,3.48h10.54v.03s16.07,0,16.07,0l8.35-39.23h-15.67l-5.48,25.17h-5.48c-.9,0-1.53-.23-1.91-.71-.95-1.17-.43-3.65-.17-4.84l7.64-34.66Z"/>
    <polygon class="cls-4" points="287.4 .07 273.5 44.76 278.93 .07 262.99 .07 249.54 44.91 254.36 .07 237.46 .07 233.12 74.06 251.09 74.06 263.29 36.42 259 74.06 276.99 74.06 304.06 .07 287.4 .07"/>
    <polygon class="cls-4" points="331.46 44.36 334.94 28.19 319.08 28.19 321.76 15.59 339.87 15.59 343.15 .19 308.55 .19 292.81 74.06 328.13 74.06 331.4 58.65 312.56 58.65 315.6 44.36 331.46 44.36"/>
    <polygon class="cls-4" points="366.83 .07 350.36 .07 334.68 74.06 367.26 74.06 370.54 58.65 354.43 58.65 366.83 .07"/>
    <path class="cls-4" d="M422.35,5.35c-2.75-3.4-7.2-5.05-12.78-5.09v-.03s-21.9-.05-21.9-.05l-15.63,73.89h16.04v-.06h6.59v.03c12.36,0,20.78-6.9,23.62-20.24l6.61-32.06c1.46-6.86.58-12.53-2.55-16.39ZM408.79,19.96l-7.22,34.93c-.58,2.7-1.21,4.67-3.81,5.02h-6.93l8.83-45.55h5.91v.06c.88,0,2.66.23,3.05.71.95,1.17.43,3.65.17,4.84Z"/>
  </g>
  <g>
    <path class="cls-3" d="M6.23,39.26c.96-2.16,1.74-3.83,2.35-5.01.61-1.18,1.12-1.97,1.55-2.39.42-.42.77-.57,1.04-.44.27.12.5.35.69.7.66,1.03,1.05,2.27,1.17,3.72.11,1.45.08,3.07-.11,4.84-.18,1.78-.47,3.67-.86,5.67-.39,2-.81,4.03-1.24,6.08.96-2.07,1.9-4.17,2.82-6.29.92-2.12,1.91-4.13,2.97-6.03.57-1,1.24-2.31,2-3.93.76-1.63,1.66-3.19,2.7-4.69,1.03-1.51,2.19-2.77,3.47-3.8,1.28-1.03,2.71-1.45,4.31-1.26.98.22,1.75.49,2.29.82.54.33,1.1.92,1.67,1.78.97,1.81,1.45,3.75,1.46,5.83,0,2.08-.16,4.18-.5,6.32-.34,2.14-.75,4.27-1.23,6.41-.48,2.14-.71,4.19-.71,6.13l7.58-13.59c.57-1.09,1.28-1.87,2.14-2.35.86-.48,1.73-.72,2.62-.72.88,0,1.69.32,2.43.95.73.63,1.31,1.55,1.72,2.77.07,1.59.03,3.53-.13,5.83-.16,2.3-.23,4.6-.21,6.9.02,2.3.23,4.49.64,6.59.41,2.1,1.16,3.7,2.28,4.8,2.1-.36,4.15-1.47,6.14-3.33,1.99-1.86,3.81-4.04,5.46-6.54,1.65-2.5,3.1-5.09,4.34-7.75,1.24-2.66,2.18-4.94,2.8-6.82.73-1.45,1.74-2,3.03-1.66,1.3.34,1.98,1.3,2.06,2.89-1.67,5.99-3.92,11.26-6.75,15.81-2.84,4.55-6.54,9-11.1,13.36-.85.75-1.97,1.42-3.35,2.01-1.39.59-3.06.58-5.03-.03-1.44-.46-2.64-1.22-3.62-2.28-.98-1.06-1.79-2.28-2.42-3.66-.64-1.38-1.15-2.82-1.52-4.3-.38-1.48-.64-2.84-.78-4.07-.65,1.27-1.36,2.51-2.15,3.74-.78,1.23-1.66,2.35-2.62,3.37-.97,1.02-2.06,1.84-3.26,2.47-1.21.63-2.56.98-4.06,1.05-1.24-.12-2.25-.42-3.02-.92-.77-.49-1.5-1.3-2.16-2.42-.82-2.43-1.28-4.86-1.4-7.29-.11-2.42-.05-4.83.2-7.23-2.02,4.16-4.12,8.38-6.3,12.67-2.19,4.3-4.79,8.06-7.82,11.29-1.45,1.04-2.78,1.36-3.99.98-1.21-.39-2.29-1.31-3.24-2.76-.55-2.27-.67-4.89-.36-7.86.3-2.97.82-6.02,1.56-9.14.74-3.12,1.55-6.19,2.42-9.18.88-3,1.57-5.66,2.08-7.98ZM23.08,42.59c0-.18-.03-.15-.06.07-.03.22-.09.56-.15,1l.22-1.07Z"/>
    <path class="cls-3" d="M70.94,32.17c.05-.8.33-1.43.84-1.89.51-.46,1.05-.71,1.62-.74.57-.03,1.11.13,1.61.45.5.33.86.89,1.07,1.67.19,2.29.21,4.56.05,6.82-.16,2.26-.28,4.54-.35,6.84-.07,2.3-.07,4.6-.01,6.89.06,2.29.36,4.53.91,6.71,2.63-2.33,4.66-4.78,6.08-7.37,1.43-2.58,2.6-5.29,3.53-8.11.93-2.82,1.72-5.73,2.38-8.72.66-2.99,1.53-6.01,2.63-9.06.57-1,1.29-1.74,2.15-2.22.86-.48,1.71-.7,2.55-.65.84.05,1.63.37,2.36.95.73.58,1.26,1.44,1.58,2.58.43,3.69.61,7.39.51,11.1-.09,3.71,0,7.46.25,11.25l.15,3.17c2.23-1.43,4.53-2.75,6.9-3.96,2.37-1.21,4.82-2.23,7.34-3.05.96-.31,2.05-.54,3.28-.68,1.23-.14,2.33-.11,3.32.11.98.22,1.75.69,2.32,1.42.56.72.7,1.8.41,3.23-.46,1.43-1.27,2.16-2.42,2.16-1.15,0-1.96-.46-2.45-1.41l-.93.04c-3.14.94-6.14,2.27-9.02,3.99-2.88,1.72-5.6,3.57-8.16,5.54.56,8.36.79,16.59.68,24.67-.11,8.08-1.3,16.37-3.55,24.87-.76,2.68-1.78,5.45-3.06,8.29-1.28,2.84-2.89,5.34-4.82,7.51-1.93,2.16-4.2,3.77-6.8,4.82-2.6,1.05-5.55,1.16-8.86.34-2.14-.52-4.07-1.56-5.77-3.11-1.71-1.56-3.13-3.35-4.29-5.37-1.15-2.02-2.03-4.17-2.61-6.43-.59-2.27-.85-4.42-.76-6.46.18-5.66,1.02-10.89,2.52-15.68,1.5-4.79,3.57-9.24,6.21-13.33,2.64-4.1,5.77-7.9,9.41-11.43,3.63-3.52,7.63-6.84,11.99-9.96-.04-.97-.09-1.96-.14-2.97-.05-1.01-.05-2.01,0-2.98-.09,0-.13.05-.13.14-.73,1.45-1.48,2.9-2.25,4.34-.77,1.45-1.75,2.73-2.93,3.84l-5.75,4.5c-.85.66-1.79,1.06-2.79,1.19-1.01.14-1.98.07-2.92-.2-.94-.26-1.8-.75-2.58-1.47-.78-.71-1.33-1.59-1.65-2.64-.73-2.44-1.11-4.89-1.13-7.36-.03-2.47.08-4.93.32-7.37.24-2.44.5-4.9.78-7.39.28-2.48.41-4.96.39-7.44ZM92.43,84.42c.21-3.01.27-6,.18-8.95-.09-2.96-.25-5.88-.47-8.79-2.63,2.33-5.08,4.78-7.34,7.36-2.27,2.58-4.35,5.32-6.24,8.24-2.63,4.27-4.54,8.36-5.73,12.25-1.19,3.9-1.8,8.32-1.84,13.26.05,1.06.26,2.39.65,4.01.38,1.62.96,3.14,1.73,4.56.77,1.42,1.73,2.55,2.87,3.38,1.14.83,2.5.99,4.06.47,1.22-.41,2.28-1.19,3.2-2.33.92-1.15,1.68-2.4,2.28-3.75.6-1.35,1.11-2.75,1.53-4.18.42-1.43.78-2.64,1.09-3.63.46-1.43.84-2.84,1.13-4.22.29-1.38.58-2.79.87-4.21.23-.8.45-1.79.66-2.94.21-1.16.4-2.36.56-3.6.16-1.24.33-2.47.49-3.66.16-1.2.27-2.29.31-3.26Z"/>
  </g>
</svg>