<svg width="20" height="20" viewBox="0 0 20 20" fill="none" xmlns="http://www.w3.org/2000/svg">
<g id="fi_8742729">
<path id="Vector" d="M11.6667 1.66797H8.33333C7.8731 1.66797 7.5 2.04106 7.5 2.5013V3.33464C7.5 3.79487 7.8731 4.16797 8.33333 4.16797H11.6667C12.1269 4.16797 12.5 3.79487 12.5 3.33464V2.5013C12.5 2.04106 12.1269 1.66797 11.6667 1.66797Z" fill="#FFE600"/>
<path id="Vector_2" d="M15.4154 2.5H13.332V3.33333C13.332 3.77536 13.1564 4.19928 12.8439 4.51184C12.5313 4.82441 12.1074 5 11.6654 5H8.33203C7.89 5 7.46608 4.82441 7.15352 4.51184C6.84096 4.19928 6.66536 3.77536 6.66536 3.33333V2.5H4.58203C4.25051 2.5 3.93257 2.6317 3.69815 2.86612C3.46373 3.10054 3.33203 3.41848 3.33203 3.75V17.0833C3.33203 17.4149 3.46373 17.7328 3.69815 17.9672C3.93257 18.2016 4.25051 18.3333 4.58203 18.3333H15.4154C15.7469 18.3333 16.0648 18.2016 16.2992 17.9672C16.5337 17.7328 16.6654 17.4149 16.6654 17.0833V3.75C16.6654 3.41848 16.5337 3.10054 16.2992 2.86612C16.0648 2.6317 15.7469 2.5 15.4154 2.5ZM14.1654 14.1667H5.83203C5.72152 14.1667 5.61554 14.1228 5.5374 14.0446C5.45926 13.9665 5.41536 13.8605 5.41536 13.75C5.41536 13.6395 5.45926 13.5335 5.5374 13.4554C5.61554 13.3772 5.72152 13.3333 5.83203 13.3333H14.1654C14.2759 13.3333 14.3819 13.3772 14.46 13.4554C14.5381 13.5335 14.582 13.6395 14.582 13.75C14.582 13.8605 14.5381 13.9665 14.46 14.0446C14.3819 14.1228 14.2759 14.1667 14.1654 14.1667ZM14.1654 10.8333H5.83203C5.72152 10.8333 5.61554 10.7894 5.5374 10.7113C5.45926 10.6332 5.41536 10.5272 5.41536 10.4167C5.41536 10.3062 5.45926 10.2002 5.5374 10.122C5.61554 10.0439 5.72152 10 5.83203 10H14.1654C14.2759 10 14.3819 10.0439 14.46 10.122C14.5381 10.2002 14.582 10.3062 14.582 10.4167C14.582 10.5272 14.5381 10.6332 14.46 10.7113C14.3819 10.7894 14.2759 10.8333 14.1654 10.8333ZM14.1654 7.5H5.83203C5.72152 7.5 5.61554 7.4561 5.5374 7.37796C5.45926 7.29982 5.41536 7.19384 5.41536 7.08333C5.41536 6.97283 5.45926 6.86685 5.5374 6.7887C5.61554 6.71057 5.72152 6.66667 5.83203 6.66667H14.1654C14.2759 6.66667 14.3819 6.71057 14.46 6.7887C14.5381 6.86685 14.582 6.97283 14.582 7.08333C14.582 7.19384 14.5381 7.29982 14.46 7.37796C14.3819 7.4561 14.2759 7.5 14.1654 7.5Z" fill="#FFE600"/>
</g>
</svg>
