<svg width="20" height="20" viewBox="0 0 20 20" fill="none" xmlns="http://www.w3.org/2000/svg">
<g id="NotificationFilled 1">
<path id="Vector" fill-rule="evenodd" clip-rule="evenodd" d="M7.25197 14.424L4.80597 14.143C2.95097 13.93 2.42597 11.484 4.02797 10.527L4.09297 10.489C4.5221 10.2328 4.87737 9.86954 5.124 9.43482C5.37063 9.0001 5.50018 8.50881 5.49997 8.009V7.5C5.49997 6.30653 5.97407 5.16193 6.81799 4.31802C7.6619 3.47411 8.80649 3 9.99997 3C11.1934 3 12.338 3.47411 13.1819 4.31802C14.0259 5.16193 14.5 6.30653 14.5 7.5V8.01C14.5 9.026 15.035 9.968 15.908 10.489L15.973 10.527C17.575 11.484 17.049 13.93 15.195 14.143L12.652 14.435V14.8C12.652 15.5161 12.3675 16.2028 11.8612 16.7092C11.3548 17.2155 10.6681 17.5 9.95197 17.5C9.23588 17.5 8.54913 17.2155 8.04278 16.7092C7.53643 16.2028 7.25197 15.5161 7.25197 14.8V14.424ZM11.152 14.5H8.75197V14.8C8.75197 15.1183 8.8784 15.4235 9.10344 15.6485C9.32848 15.8736 9.63371 16 9.95197 16C10.2702 16 10.5755 15.8736 10.8005 15.6485C11.0255 15.4235 11.152 15.1183 11.152 14.8V14.5Z" fill="#FFE600"/>
</g>
</svg>
